<?xml version="1.0" standalone="no"?>
<!DOCTYPE svg PUBLIC "-//W3C//DTD SVG 20010904//EN"
 "http://www.w3.org/TR/2001/REC-SVG-20010904/DTD/svg10.dtd">
<svg version="1.0" xmlns="http://www.w3.org/2000/svg"
 width="90.000000pt" height="90.000000pt" viewBox="0 0 90.000000 90.000000"
 preserveAspectRatio="xMidYMid meet">
<metadata>
Created by potrace 1.11, written by Peter Selinger 2001-2013
</metadata>
<g transform="translate(0.000000,90.000000) scale(0.100000,-0.100000)"
fill="#000000" stroke="none">
<path d="M420 590 l0 -71 -26 20 c-32 25 -83 27 -124 6 -43 -22 -64 -69 -64
-140 0 -71 21 -118 64 -140 41 -21 92 -19 124 6 l26 20 0 -20 c0 -19 6 -21 60
-21 l60 0 -2 203 -3 202 -57 3 -58 3 0 -71z m-13 -156 c15 -24 15 -29 2 -53
-10 -17 -23 -26 -39 -26 -16 0 -29 9 -39 26 -13 24 -13 29 2 53 22 33 52 33
74 0z"/>
<path d="M580 310 l0 -60 60 0 61 0 -3 58 -3 57 -57 3 -58 3 0 -61z"/>
</g>
</svg>
