<?xml version="1.0" encoding="utf-8"?>
<!-- Generator: Adobe Illustrator 19.0.0, SVG Export Plug-In . SVG Version: 6.00 Build 0)  -->
<svg version="1.1" id="Layer_1" xmlns="http://www.w3.org/2000/svg" xmlns:xlink="http://www.w3.org/1999/xlink" x="0px" y="0px"
	 viewBox="0 0 637.7 637.8" style="enable-background:new 0 0 637.7 637.8;" xml:space="preserve">
<style type="text/css">
	.st0{fill:#FBD214;}
</style>
<rect class="st0" width="637.7" height="637.8"/>
<g>
	<path d="M190.4,421.1c-17.2-18.6-25.8-42.4-25.8-71.4c0-29,8.6-52.9,25.8-71.5c17.2-18.7,38.1-28,62.8-28
		c24.7,0,43.7,9.2,56.9,27.5v-88.8h59.5v257.6h-59.5v-28.2c-14.4,20.4-33.7,30.6-57.8,30.6C228.2,449,207.6,439.7,190.4,421.1z
		 M297.3,384.9c8.6-8.4,12.9-20.2,12.9-35.5s-4.3-27.1-12.9-35.3c-8.6-8.2-18.5-12.4-29.6-12.4s-21,4.2-29.6,12.5
		c-8.6,8.4-12.9,20.2-12.9,35.5c0,15.3,4.3,27.1,12.9,35.3c8.6,8.2,18.5,12.4,29.6,12.4S288.7,393.2,297.3,384.9z"/>
	<path d="M473.1,414c0,9.2-3.1,16.9-9.4,23.2c-6.3,6.3-14,9.4-23.2,9.4c-9.2,0-16.9-3.1-23.2-9.4c-6.3-6.3-9.4-14-9.4-23.2
		c0-9.2,3.1-16.9,9.4-23.2c6.3-6.3,14-9.4,23.2-9.4c9.2,0,16.9,3.1,23.2,9.4C470,397.1,473.1,404.8,473.1,414z"/>
</g>
</svg>
