<?xml version="1.0" encoding="utf-8"?>
<!-- Generator: Adobe Illustrator 19.0.0, SVG Export Plug-In . SVG Version: 6.00 Build 0)  -->
<svg version="1.1" id="Layer_1" xmlns="http://www.w3.org/2000/svg" xmlns:xlink="http://www.w3.org/1999/xlink" x="0px" y="0px"
	 viewBox="-160 -38.8 637.7 637.8" style="enable-background:new -160 -38.8 637.7 637.8;" xml:space="preserve">
<style type="text/css">
	.st0{fill:none;stroke:#FBD214;stroke-width:5;stroke-linecap:round;stroke-linejoin:round;stroke-miterlimit:10;}
	.st1{opacity:0.3;}
	.st2{fill:none;stroke:#FBD214;stroke-miterlimit:10;}
</style>
<g>
	<line class="st0" x1="72.2" y1="106.2" x2="56.9" y2="91.9"/>
	<line class="st0" x1="57.4" y1="106.7" x2="71.7" y2="91.5"/>
</g>
<g>
	<line class="st0" x1="89.7" y1="325.7" x2="74.5" y2="311.4"/>
	<line class="st0" x1="74.9" y1="326.1" x2="89.2" y2="310.9"/>
</g>
<g>
	<line class="st0" x1="-95.9" y1="448.3" x2="-111.1" y2="434"/>
	<line class="st0" x1="-110.7" y1="448.7" x2="-96.4" y2="433.5"/>
</g>
<g>
	<line class="st0" x1="-102.5" y1="85.4" x2="-117.8" y2="71"/>
	<line class="st0" x1="-117.3" y1="85.8" x2="-103" y2="70.6"/>
</g>
<g>
	<line class="st0" x1="439.9" y1="105.9" x2="424.6" y2="91.6"/>
	<line class="st0" x1="425.1" y1="106.3" x2="439.4" y2="91.1"/>
</g>
<g>
	<line class="st0" x1="259.9" y1="183.7" x2="244.7" y2="169.4"/>
	<line class="st0" x1="245.2" y1="184.1" x2="259.5" y2="168.9"/>
</g>
<g>
	<line class="st0" x1="334.3" y1="353.5" x2="319" y2="339.2"/>
	<line class="st0" x1="319.5" y1="354" x2="333.8" y2="338.7"/>
</g>
<g>
	<line class="st0" x1="322.5" y1="491.8" x2="307.2" y2="477.5"/>
	<line class="st0" x1="307.7" y1="492.3" x2="322" y2="477"/>
</g>
<polygon class="st0" points="185.5,129.1 175,111 164.5,129.1 154.1,147.3 175,147.3 196,147.3 "/>
<polygon class="st0" points="150.8,351.1 140.3,333 129.8,351.1 119.4,369.3 140.3,369.3 161.3,369.3 "/>
<polygon class="st0" points="271.1,419.3 260.6,401.1 250.2,419.3 239.7,437.5 260.7,437.5 281.6,437.5 "/>
<polygon class="st0" points="340.4,279.9 345.8,259.6 325.5,265.1 305.3,270.5 320.1,285.3 334.9,300.1 "/>
<polygon class="st0" points="-4.6,44.6 0.9,24.3 -19.4,29.8 -39.7,35.2 -24.8,50 -10,64.8 "/>
<polygon class="st0" points="-18.9,482.5 -13.5,462.2 -33.8,467.7 -54,473.1 -39.2,487.9 -24.3,502.8 "/>
<polygon class="st0" points="361.6,67.2 379.8,56.7 361.6,46.3 343.4,35.8 343.4,56.7 343.5,77.7 "/>
<polygon class="st0" points="-19.4,276.8 -1.2,266.3 -19.4,255.8 -37.6,245.3 -37.6,266.3 -37.5,287.3 "/>
<circle class="st0" cx="205.1" cy="242.4" r="15.9"/>
<circle class="st0" cx="124.6" cy="64.8" r="15.9"/>
<circle class="st0" cx="134.8" cy="534.5" r="15.9"/>
<path class="st0" d="M193.3,510.7c0-8.8,7.1-15.9,15.9-15.9s15.9,7.1,15.9,15.9"/>
<path class="st0" d="M66.3,266.3c0-8.8,7.1-15.9,15.9-15.9s15.9,7.1,15.9,15.9"/>
<path class="st0" d="M-101.1,137.1c0-8.8,7.1-15.9,15.8-15.9s15.8,7.1,15.8,15.9"/>
<path class="st0" d="M300,163.2c-8.8,0-15.9-7.1-15.9-15.8s7.1-15.8,15.9-15.8"/>
<path class="st0" d="M-83.2,534.4c-8.8,0-15.9-7.1-15.9-15.8s7.1-15.8,15.9-15.8"/>
<path class="st0" d="M87.6,28.3c-8.8,0-15.9-7.1-15.9-15.8S78.8-3.3,87.6-3.3"/>
<circle class="st0" cx="-91.2" cy="367.1" r="15.9"/>
<circle class="st0" cx="399.6" cy="385.2" r="15.9"/>
<rect x="371.5" y="131.5" class="st0" width="31.7" height="31.7"/>
<rect x="13.6" y="147.3" class="st0" width="31.7" height="31.7"/>
<rect x="12" y="349.4" class="st0" width="31.7" height="31.7"/>
<rect x="371.5" y="502.8" class="st0" width="31.7" height="31.7"/>
<rect x="240.1" y="-3.3" class="st0" width="31.7" height="31.7"/>
<g>
	<path class="st0" d="M194.7,318.5c-6.9,0-5.7-12.3-14.5-12.3"/>
	<path class="st0" d="M223.7,318.5c-6.9,0-5.7-12.3-14.5-12.3"/>
	<path class="st0" d="M194.7,318.5c6.9,0,5.7-12.3,14.5-12.3"/>
	<path class="st0" d="M238.3,306.3"/>
	<path class="st0" d="M223.7,318.5c6.9,0,5.7-12.3,14.5-12.3"/>
</g>
<g>
	<path class="st0" d="M277.5,546.8c-6.9,0-5.7-12.3-14.5-12.3"/>
	<path class="st0" d="M306.5,546.8c-6.9,0-5.7-12.3-14.5-12.3"/>
	<path class="st0" d="M277.5,546.8c6.9,0,5.7-12.3,14.5-12.3"/>
	<path class="st0" d="M321.1,534.5"/>
	<path class="st0" d="M306.5,546.8c6.9,0,5.7-12.3,14.5-12.3"/>
</g>
<g>
	<path class="st0" d="M317.1,217.7c-6.9,0-5.7-12.3-14.5-12.3"/>
	<path class="st0" d="M346.2,217.7c-6.9,0-5.7-12.3-14.5-12.3"/>
	<path class="st0" d="M317.1,217.7c6.9,0,5.7-12.3,14.5-12.3"/>
	<path class="st0" d="M360.7,205.5"/>
	<path class="st0" d="M346.2,217.7c6.9,0,5.7-12.3,14.5-12.3"/>
</g>
<g>
	<path class="st0" d="M-87.2,202.9c-6.9,0-5.7-12.3-14.5-12.3"/>
	<path class="st0" d="M-58.1,202.9c-6.9,0-5.7-12.3-14.5-12.3"/>
	<path class="st0" d="M-87.2,202.9c6.9,0,5.7-12.3,14.5-12.3"/>
	<path class="st0" d="M-43.6,190.6"/>
	<path class="st0" d="M-58.1,202.9c6.9,0,5.7-12.3,14.5-12.3"/>
</g>
<g>
	<path class="st0" d="M197.1,38.8c0,6.9-12.3,5.7-12.3,14.5"/>
	<path class="st0" d="M197.1,9.8c0,6.9-12.3,5.7-12.3,14.5"/>
	<path class="st0" d="M197.1,38.8c0-6.9-12.3-5.7-12.3-14.5"/>
	<path class="st0" d="M184.8-4.8"/>
	<path class="st0" d="M197.1,9.8c0-6.9-12.3-5.7-12.3-14.5"/>
</g>
<g>
	<path class="st0" d="M107.9,190.9c0,6.9-12.3,5.7-12.3,14.5"/>
	<path class="st0" d="M107.9,161.8c0,6.9-12.3,5.7-12.3,14.5"/>
	<path class="st0" d="M107.9,190.9c0-6.9-12.3-5.7-12.3-14.5"/>
	<path class="st0" d="M95.7,147.3"/>
	<path class="st0" d="M107.9,161.8c0-6.9-12.3-5.7-12.3-14.5"/>
</g>
<g>
	<path class="st0" d="M349.6,433.8c0,6.9-12.3,5.7-12.3,14.5"/>
	<path class="st0" d="M349.6,404.8c0,6.9-12.3,5.7-12.3,14.5"/>
	<path class="st0" d="M349.6,433.8c0-6.9-12.3-5.7-12.3-14.5"/>
	<path class="st0" d="M337.3,390.2"/>
	<path class="st0" d="M349.6,404.8c0-6.9-12.3-5.7-12.3-14.5"/>
</g>
<g>
	<path class="st0" d="M49.8,456.8c0,6.9-12.3,5.7-12.3,14.5"/>
	<path class="st0" d="M49.8,427.7c0,6.9-12.3,5.7-12.3,14.5"/>
	<path class="st0" d="M49.8,456.8c0-6.9-12.3-5.7-12.3-14.5"/>
	<path class="st0" d="M37.5,413.1"/>
	<path class="st0" d="M49.8,427.7c0-6.9-12.3-5.7-12.3-14.5"/>
</g>
<line class="st0" x1="229.5" y1="351.1" x2="265.4" y2="351.1"/>
<line class="st0" x1="-123.1" y1="247.5" x2="-87.3" y2="247.5"/>
<line class="st0" x1="232.2" y1="80.8" x2="268" y2="80.8"/>
<line class="st0" x1="373.6" y1="-0.2" x2="409.4" y2="-0.2"/>
<line class="st0" x1="19.9" y1="534.4" x2="55.7" y2="534.4"/>
<line class="st0" x1="112" y1="465.1" x2="137.3" y2="439.8"/>
<line class="st0" x1="-98" y1="25.2" x2="-72.6" y2="-0.2"/>
<line class="st0" x1="391.5" y1="285.2" x2="416.9" y2="259.8"/>
<g class="st1">
	<polygon class="st2" points="208.3,142.5 197.8,124.3 187.4,142.5 176.9,160.7 197.9,160.7 218.8,160.6 	"/>
	<polygon class="st2" points="173.6,364.5 163.1,346.3 152.6,364.5 142.2,382.7 163.1,382.7 184.1,382.6 	"/>
	<polygon class="st2" points="294,432.7 283.5,414.5 273,432.7 262.5,450.8 283.5,450.8 304.5,450.8 	"/>
	<polygon class="st2" points="363.2,293.2 368.6,273 348.3,278.4 328.1,283.9 342.9,298.7 357.8,313.5 	"/>
	<polygon class="st2" points="18.3,57.9 23.7,37.7 3.4,43.1 -16.8,48.6 -2,63.4 12.8,78.2 	"/>
	<polygon class="st2" points="3.9,495.9 9.3,475.6 -10.9,481 -31.2,486.5 -16.4,501.3 -1.5,516.1 	"/>
	<polygon class="st2" points="384.4,80.6 402.6,70.1 384.4,59.6 366.2,49.1 366.3,70.1 366.3,91.1 	"/>
	<polygon class="st2" points="3.4,290.1 21.6,279.6 3.4,269.2 -14.8,258.7 -14.7,279.7 -14.7,300.6 	"/>
	<circle class="st2" cx="227.9" cy="255.8" r="15.9"/>
	<circle class="st2" cx="147.5" cy="78.2" r="15.9"/>
	<circle class="st2" cx="157.6" cy="547.9" r="15.9"/>
	<path class="st2" d="M216.1,524.1c0-8.8,7.1-15.9,15.9-15.9s15.9,7.1,15.9,15.9"/>
	<path class="st2" d="M89.1,279.7c0-8.8,7.1-15.9,15.9-15.9s15.9,7.1,15.9,15.9"/>
	<path class="st2" d="M-78.3,150.5c0-8.8,7.1-15.9,15.8-15.9s15.8,7.1,15.8,15.9"/>
	<path class="st2" d="M322.8,176.5c-8.8,0-15.9-7.1-15.9-15.8s7.1-15.8,15.9-15.8"/>
	<path class="st2" d="M-60.4,547.8c-8.8,0-15.9-7.1-15.9-15.8s7.1-15.8,15.9-15.8"/>
	<path class="st2" d="M110.4,41.7c-8.8,0-15.9-7.1-15.9-15.8s7.1-15.8,15.9-15.8"/>
	<circle class="st2" cx="-68.3" cy="380.4" r="15.9"/>
	<circle class="st2" cx="422.4" cy="398.6" r="15.9"/>
	<rect x="394.3" y="144.8" class="st2" width="31.7" height="31.7"/>
	<rect x="36.4" y="160.7" class="st2" width="31.7" height="31.7"/>
	<rect x="34.8" y="362.8" class="st2" width="31.7" height="31.7"/>
	<rect x="394.3" y="516.1" class="st2" width="31.7" height="31.7"/>
	<rect x="263" y="10" class="st2" width="31.7" height="31.7"/>
	<g>
		<path class="st2" d="M217.5,331.9c-6.9,0-5.7-12.3-14.5-12.3"/>
		<path class="st2" d="M246.5,331.9c-6.9,0-5.7-12.3-14.5-12.3"/>
		<path class="st2" d="M217.5,331.9c6.9,0,5.7-12.3,14.5-12.3"/>
		<path class="st2" d="M261.1,319.6"/>
		<path class="st2" d="M246.5,331.9c6.9,0,5.7-12.3,14.5-12.3"/>
	</g>
	<g>
		<path class="st2" d="M300.3,560.1c-6.9,0-5.7-12.3-14.5-12.3"/>
		<path class="st2" d="M329.4,560.1c-6.9,0-5.7-12.3-14.5-12.3"/>
		<path class="st2" d="M300.3,560.1c6.9,0,5.7-12.3,14.5-12.3"/>
		<path class="st2" d="M343.9,547.9"/>
		<path class="st2" d="M329.4,560.1c6.9,0,5.7-12.3,14.5-12.3"/>
	</g>
	<g>
		<path class="st2" d="M339.9,231.1c-6.9,0-5.7-12.3-14.5-12.3"/>
		<path class="st2" d="M369,231.1c-6.9,0-5.7-12.3-14.5-12.3"/>
		<path class="st2" d="M339.9,231.1c6.9,0,5.7-12.3,14.5-12.3"/>
		<path class="st2" d="M383.5,218.8"/>
		<path class="st2" d="M369,231.1c6.9,0,5.7-12.3,14.5-12.3"/>
	</g>
	<g>
		<path class="st2" d="M-64.3,216.3c-6.9,0-5.7-12.3-14.5-12.3"/>
		<path class="st2" d="M-35.3,216.3c-6.9,0-5.7-12.3-14.5-12.3"/>
		<path class="st2" d="M-64.3,216.3c6.9,0,5.7-12.3,14.5-12.3"/>
		<path class="st2" d="M-20.7,204"/>
		<path class="st2" d="M-35.3,216.3c6.9,0,5.7-12.3,14.5-12.3"/>
	</g>
	<g>
		<path class="st2" d="M219.9,52.2c0,6.9-12.3,5.7-12.3,14.5"/>
		<path class="st2" d="M219.9,23.1c0,6.9-12.3,5.7-12.3,14.5"/>
		<path class="st2" d="M219.9,52.2c0-6.9-12.3-5.7-12.3-14.5"/>
		<path class="st2" d="M207.6,8.6"/>
		<path class="st2" d="M219.9,23.1c0-6.9-12.3-5.7-12.3-14.5"/>
	</g>
	<g>
		<path class="st2" d="M130.7,204.3c0,6.9-12.3,5.7-12.3,14.5"/>
		<path class="st2" d="M130.7,175.2c0,6.9-12.3,5.7-12.3,14.5"/>
		<path class="st2" d="M130.7,204.3c0-6.9-12.3-5.7-12.3-14.5"/>
		<path class="st2" d="M118.5,160.7"/>
		<path class="st2" d="M130.7,175.2c0-6.9-12.3-5.7-12.3-14.5"/>
	</g>
	<g>
		<path class="st2" d="M372.4,447.2c0,6.9-12.3,5.7-12.3,14.5"/>
		<path class="st2" d="M372.4,418.1c0,6.9-12.3,5.7-12.3,14.5"/>
		<path class="st2" d="M372.4,447.2c0-6.9-12.3-5.7-12.3-14.5"/>
		<path class="st2" d="M360.1,403.6"/>
		<path class="st2" d="M372.4,418.1c0-6.9-12.3-5.7-12.3-14.5"/>
	</g>
	<g>
		<path class="st2" d="M72.6,470.1c0,6.9-12.3,5.7-12.3,14.5"/>
		<path class="st2" d="M72.6,441c0,6.9-12.3,5.7-12.3,14.5"/>
		<path class="st2" d="M72.6,470.1c0-6.9-12.3-5.7-12.3-14.5"/>
		<path class="st2" d="M60.3,426.5"/>
		<path class="st2" d="M72.6,441c0-6.9-12.3-5.7-12.3-14.5"/>
	</g>
	<line class="st2" x1="252.3" y1="364.5" x2="288.2" y2="364.5"/>
	<line class="st2" x1="-100.3" y1="260.8" x2="-64.4" y2="260.8"/>
	<line class="st2" x1="255" y1="94.1" x2="290.9" y2="94.1"/>
	<line class="st2" x1="396.4" y1="13.2" x2="432.2" y2="13.2"/>
	<line class="st2" x1="42.7" y1="547.8" x2="78.5" y2="547.8"/>
	<line class="st2" x1="134.8" y1="478.5" x2="160.1" y2="453.1"/>
	<line class="st2" x1="-75.2" y1="38.5" x2="-49.8" y2="13.2"/>
	<line class="st2" x1="414.3" y1="298.5" x2="439.7" y2="273.2"/>
</g>
<path class="st0" d="M203.4,436.1c-2.9,1.8-6.8,1-8.6-2c-1.8-2.9-1-6.8,2-8.6c2.9-1.8,6.8-1,8.6,2
	C207.3,430.3,206.4,434.2,203.4,436.1z"/>
<path class="st0" d="M154.1,263.6c-2.9,1.8-6.8,1-8.6-2c-1.8-2.9-1-6.8,2-8.6c2.9-1.8,6.8-1,8.6,2
	C157.9,257.9,157,261.8,154.1,263.6z"/>
<path class="st0" d="M-71.8,316.7c-2.9,1.8-6.8,1-8.6-2c-1.8-2.9-1-6.8,2-8.6c2.9-1.8,6.8-1,8.6,2C-68,311-68.9,314.8-71.8,316.7z"
	/>
<path class="st0" d="M-7.6,119.4c-2.9,1.8-6.8,1-8.6-2c-1.8-2.9-1-6.8,2-8.6c2.9-1.8,6.8-1,8.6,2C-3.8,113.7-4.7,117.5-7.6,119.4z"
	/>
<path class="st0" d="M337.2,116.3c-2.9,1.8-6.8,1-8.6-2c-1.8-2.9-1-6.8,2-8.6c2.9-1.8,6.8-1,8.6,2
	C341,110.6,340.1,114.4,337.2,116.3z"/>
<path class="st0" d="M425.7,339.6c-2.9,1.8-6.8,1-8.6-2c-1.8-2.9-1-6.8,2-8.6c2.9-1.8,6.8-1,8.6,2
	C429.5,333.9,428.6,337.7,425.7,339.6z"/>
</svg>
